<svg id="Layer_1" data-name="Layer 1" xmlns="http://www.w3.org/2000/svg" xmlns:xlink="http://www.w3.org/1999/xlink" viewBox="0 0 500 402.29"><defs><style>.cls-1,.cls-10,.cls-4,.cls-8{fill:none;}.cls-2,.cls-6{fill:#263238;}.cls-10,.cls-2,.cls-3,.cls-7,.cls-8,.cls-9{stroke:#263238;}.cls-2,.cls-3,.cls-4,.cls-7,.cls-8,.cls-9{stroke-linecap:round;stroke-linejoin:round;}.cls-10,.cls-2,.cls-3,.cls-4,.cls-7,.cls-8,.cls-9{stroke-width:1.19px;}.cls-15,.cls-3,.cls-5{fill:#fff;}.cls-4{stroke:#fff;}.cls-11,.cls-7{fill:#00ff38;}.cls-18,.cls-9{fill:#757575;}.cls-10{stroke-miterlimit:10;}.cls-12{clip-path:url(#clip-path);}.cls-13,.cls-15,.cls-17{isolation:isolate;}.cls-13{opacity:0.18;}.cls-14{clip-path:url(#clip-path-2);}.cls-15{opacity:0.5;}.cls-16{clip-path:url(#clip-path-3);}.cls-17{opacity:0.3;}.cls-19{clip-path:url(#clip-path-4);}.cls-20{clip-path:url(#clip-path-5);}.cls-21{fill:#121212;}</style><clipPath id="clip-path"><path class="cls-1" d="M64.89,346.06v25.19A5.43,5.43,0,0,0,67.82,376l40.5,20.91a5.36,5.36,0,0,0,4.69.13l59.66-22.74a5.4,5.4,0,0,0,3.2-4.93V338.93l-68.24,20.62Z"/></clipPath><clipPath id="clip-path-2"><path class="cls-1" d="M127.23,303.52l-65.45,21A2.5,2.5,0,0,0,60,327v18.66a2.52,2.52,0,0,0,1.44,2.24l45.62,21.72a2.57,2.57,0,0,0,2,.09l68.5-25.63a2.57,2.57,0,0,0,1.66-2.38l.12-17.5a2.57,2.57,0,0,0-2-2.49l-48.82-18.22A2.6,2.6,0,0,0,127.23,303.52Z"/></clipPath><clipPath id="clip-path-3"><path class="cls-1" d="M77.27,218.58s-2.62,15.36-.75,22.88a32,32,0,0,0,5.24,11.62S72.39,267,74.27,278.57,81,291.69,81,291.69s-4.12,21.38,3.36,28.87,24,15.74,42.36,12.38,30.75-4.13,34.49-10.51,1.5-34.49,1.5-34.49-.75-31.11-1.5-50.24-3.35-34.49-12.37-42-48.74,4.13-60.74,12S77.27,218.58,77.27,218.58Z"/></clipPath><clipPath id="clip-path-4"><path class="cls-1" d="M155.62,200.21s-7.11-10.88-16.87-16.87-34.86-10.5-45-12.37-21-1.12-24,10.06-2.63,30,.37,38.24,15.37,13.13,25.13,7.51,36.74-27.38,46.11-28.5S154.87,204.34,155.62,200.21Z"/></clipPath><clipPath id="clip-path-5"><path class="cls-1" d="M139.88,200.21c8.25-3,18.75-1.12,22.5,9.37s7.12,41.24,7.12,41.24,9.37,1.12,13.12,5.26,5.59,14.62,4.88,19.87-13.88,15-28.87,15.37-25.87-6.71-31.12-25.88-3.17-48.28-3.17-48.28,1.9-8.58,4.77-10.5"/></clipPath></defs><g id="freepik--Hole--inject-2"><ellipse class="cls-2" cx="350.41" cy="325.44" rx="80.77" ry="23.96"/><path class="cls-3" d="M350.41,312.5c38.2,0,70.2,7.83,78.6,18.45a9,9,0,0,0,2.17-5.51c0-13.24-36.17-24-80.77-24s-80.79,10.73-80.79,24a9,9,0,0,0,2.17,5.51C280.19,320.37,312.19,312.5,350.41,312.5Z"/><path class="cls-4" d="M339.38,346.4c-27-1.22-47.35-6.72-47.35-13.43a3.78,3.78,0,0,1,.66-2.05"/><path class="cls-4" d="M402,326.44c4.62,1.95,7.26,4.19,7.26,6.57,0,7.53-26.24,13.63-58.61,13.63h-1.4"/><path class="cls-4" d="M299.92,326.18c10.15-4.06,29.09-6.8,50.72-6.8a205.62,205.62,0,0,1,36.74,3"/><path class="cls-4" d="M338.6,337.69c-6.83-.95-11.41-2.68-11.41-4.68,0-3,10.51-5.44,23.5-5.44S374.12,330,374.12,333c0,2.59-7.71,4.75-18.07,5.31"/></g><g id="freepik--Landscape--inject-2"><path class="cls-4" d="M26,229.11c35.22-10,109.35-29.77,150.26-31.26,55-1.95,147.86,38,205.83,45s96.93,5,96.93,5"/><path class="cls-4" d="M6.41,234.82s3-.93,8.37-2.48"/><path class="cls-4" d="M463.38,172.54a255.78,255.78,0,0,0-61.87-5.85c-43,1.44-89.5,7.13-147,14.55S115.08,147.67,59.39,162.88,7.93,182.66,7.93,182.66"/><path class="cls-4" d="M479.22,176.66s-2.17-.72-6.1-1.76"/></g><g id="freepik--Clouds--inject-2"><path class="cls-5" d="M376.09,71a11.58,11.58,0,0,0-22.48,0Z"/><path class="cls-5" d="M489.7,71a14.33,14.33,0,0,0-12.3-10.93A33.66,33.66,0,1,0,411.18,48a21.5,21.5,0,0,0-34.75,17,21.84,21.84,0,0,0,.88,6.07Z"/><path class="cls-5" d="M176,98a5.87,5.87,0,0,0-11.42,0Z"/><path class="cls-5" d="M233.64,98a7.27,7.27,0,0,0-6.25-5.59,17.08,17.08,0,0,0-33.23-7.93,15.42,15.42,0,0,0-.33,1.8,10.91,10.91,0,0,0-17.64,8.6,11.2,11.2,0,0,0,.44,3.09Z"/><path class="cls-5" d="M227.84,116.06a3.71,3.71,0,0,0-7.21,0Z"/><path class="cls-5" d="M264.24,116.06a4.56,4.56,0,0,0-3.95-3.5,11,11,0,0,0,.18-2,10.79,10.79,0,0,0-21.37-1.94A6.89,6.89,0,0,0,228,114.08a7.05,7.05,0,0,0,.28,1.94Z"/></g><g id="freepik--Character--inject-2"><path class="cls-6" d="M150.33,244.94a2.13,2.13,0,0,1-1.12-.31,2.23,2.23,0,0,1-.78-3c.55-1,138.87-151.8,202.16-207.12A1.09,1.09,0,0,1,352,36.19c-63,55.08-199.25,206.7-199.8,207.65A2.16,2.16,0,0,1,150.33,244.94Z"/><path class="cls-7" d="M158,214.92s6.86-7.32,11-7.32,11.89,6.86,11.43,10.52-7.32.46-7.32.46-6.41,8.69-12.81,7.32S158,214.92,158,214.92Z"/><path class="cls-7" d="M173.1,218.56s4.19,2.91,4.56,4.95-4.65,7.83-10.23,9.13-8.57-1.87-6.9-4.84S168.87,218.82,173.1,218.56Z"/><path class="cls-8" d="M345.38,192.05V40.7s-3.05,10.95-3.05,11.75"/><rect class="cls-7" x="292.45" y="200.03" width="116.06" height="92.99"/><path class="cls-6" d="M347,199.64v-5.33a1.33,1.33,0,0,0-2.66,0v5.33Z"/><path class="cls-6" d="M357.69,186.68V187a1.3,1.3,0,0,0-1.12-.68,1.34,1.34,0,0,0-1.34,1.34h0v14.22a4.11,4.11,0,0,1-4.1,4.11,4,4,0,0,1-1.63-.35,2.24,2.24,0,0,0,.34,2.89,7,7,0,0,0,1.29.12,6.77,6.77,0,0,0,6.77-6.77v-6.59H361Z"/><path class="cls-8" d="M345.5,39.28s2.37-8.43.26-7.64S345.5,39.28,345.5,39.28Z"/><path class="cls-8" d="M345.5,39.28s-8.95-3.17-8.16-.27S345.5,39.28,345.5,39.28Z"/><path class="cls-2" d="M152.5,112.7s-11-6.19-32.7-3.09-25.79,21-22.25,39.52,24,34.28,27.12,33-.89-42.87,6.18-50.83,30.05-6.62,31.33-12.81S152.5,112.7,152.5,112.7Z"/><path class="cls-9" d="M114,123.72l2.23,14.62s-13.87,37.87-11.62,43.13,23.24,7.12,23.24,7.12,34.12,4.12,44.24,0,4.88-16.13,3.75-19.49-7.5-30.38-7.5-30.38,2.24-6.37,2.24-9.74-.38-12.75-1.88-15-27.74-4.88-39.37-3S112.51,115.86,114,123.72Z"/><path class="cls-3" d="M120,140.6s-.38,32.61,1.5,39,9.38,13.87,25.12,12,17.25-16.87,17.25-16.87l-1.12-34.86Z"/><path class="cls-10" d="M147,164a2.82,2.82,0,1,1-2.83-2.81h0A2.81,2.81,0,0,1,147,164Z"/><path class="cls-6" d="M146.63,175.84a1.88,1.88,0,1,1-1.88-1.88h0a1.87,1.87,0,0,1,1.87,1.87Z"/><path class="cls-6" d="M135.31,152c1.19,1.3,1.61,2.86.94,3.49s-2.24.1-3.42-1.18-1.62-2.84-.94-3.48S134.11,150.72,135.31,152Z"/><path class="cls-6" d="M150.53,152c-1.19,1.3-1.62,2.86-.94,3.49s2.24.1,3.36-1.18,1.62-2.84.94-3.48S151.73,150.72,150.53,152Z"/><path class="cls-8" d="M127.3,147.58a7.15,7.15,0,0,1,7.83-2.88"/><path class="cls-8" d="M149.94,145.11s5.35-1.64,7,2.89"/><path class="cls-2" d="M168,354.34a101.7,101.7,0,0,1,9.16-4.92,6.33,6.33,0,0,1,.94-.37c2.88-1,11.06-.48,18.75-5.3s3.85-10.58-1.93-12-12-3.36-12-3.36l-1.44-22.61s-17.32,4.81-23.09,7.22-2.41,36.55-1.93,39.43S156.93,357.22,168,354.34Z"/><path class="cls-3" d="M187.24,343.75c-10.07,1.93-10.07,3.85-21.17,5.78a42.51,42.51,0,0,1-9.88.8c.12,1,.2,1.76.26,2.08.48,2.89.48,4.81,11.55,1.93a101.7,101.7,0,0,1,9.16-4.92,6.33,6.33,0,0,1,.94-.37c2.88-1,11.06-.48,18.75-5.3,2.47-1.53,3.74-3.17,4.15-4.74A57.33,57.33,0,0,1,187.24,343.75Z"/><path class="cls-2" d="M191.24,331.44s-.37,26.24-1.12,31.86.37,12.75,8.95,12.75,25.5-5.59,31.5-6.71,15.75-3.76,19.87-13.12-21-8.26-21-8.26l1.5-19.12S205.12,334.06,191.24,331.44Z"/><path class="cls-3" d="M250.48,356.18a4.16,4.16,0,0,0,.31-2.94,23.47,23.47,0,0,1-10.06,7.83c-8.95,3.75-25.88,7.83-38.62,9.76-5.83.85-9.52-.1-11.84-1.38.83,3.64,3.26,6.63,8.84,6.63,8.62,0,25.49-5.6,31.49-6.72S246.36,365.55,250.48,356.18Z"/><path class="cls-4" d="M229.49,347.93s1.87,6.37-3.35,10.5"/><path class="cls-9" d="M188.63,317.57s-.59,11.4.05,13.68c2.4,8.66,3.16,6.63,21.16,6.25s25.27-7.56,27.15-12.06,0-14.25-.75-17.63-6.71-4.48-9-4.12S189.74,313.82,188.63,317.57Z"/><path class="cls-11" d="M64.89,346.06v25.19A5.43,5.43,0,0,0,67.82,376l40.5,20.91a5.36,5.36,0,0,0,4.69.13l59.66-22.74a5.4,5.4,0,0,0,3.2-4.93V338.93l-68.24,20.62Z"/><g class="cls-12"><path class="cls-13" d="M110.64,358.65l-3,.9L64.89,346.06v25.19A5.43,5.43,0,0,0,67.82,376l40.5,20.91a5.36,5.36,0,0,0,2.32.6Z"/></g><path class="cls-8" d="M64.89,346.06v25.19A5.43,5.43,0,0,0,67.82,376l40.5,20.91a5.36,5.36,0,0,0,4.69.13l59.66-22.74a5.4,5.4,0,0,0,3.2-4.93V338.93l-68.24,20.62Z"/><path class="cls-5" d="M127.23,303.52l-65.45,21A2.5,2.5,0,0,0,60,327v18.66a2.52,2.52,0,0,0,1.44,2.24l45.62,21.72a2.57,2.57,0,0,0,2,.09l68.5-25.63a2.57,2.57,0,0,0,1.66-2.38l.12-17.5a2.57,2.57,0,0,0-2-2.49l-48.82-18.22A2.6,2.6,0,0,0,127.23,303.52Z"/><g class="cls-14"><path class="cls-11" d="M107,369.58h0a2.57,2.57,0,0,0,2,.08l68.58-25.61a2.57,2.57,0,0,0,1.66-2.38l.12-17.5a2.49,2.49,0,0,0-.6-1.63L108,348.68Z"/><path class="cls-15" d="M107,369.58h0a2.57,2.57,0,0,0,2,.08l68.58-25.61a2.57,2.57,0,0,0,1.66-2.38l.12-17.5a2.49,2.49,0,0,0-.6-1.63L108,348.68Z"/><path class="cls-11" d="M60,326.92v18.66a2.54,2.54,0,0,0,1.44,2.24l45.62,21.77a2.57,2.57,0,0,0,1,.24V348.68l-48-22.2A2.13,2.13,0,0,0,60,326.92Z"/></g><path class="cls-8" d="M127.23,303.52l-65.45,21A2.5,2.5,0,0,0,60,327v18.66a2.52,2.52,0,0,0,1.44,2.24l45.62,21.72a2.57,2.57,0,0,0,2,.09l68.5-25.63a2.57,2.57,0,0,0,1.66-2.38l.12-17.5a2.57,2.57,0,0,0-2-2.49l-48.82-18.22A2.6,2.6,0,0,0,127.23,303.52Z"/><path class="cls-2" d="M217.12,269.2s8.61,4.12,13.12,12.38,1.12,24-1.51,28.86-20.24,7.13-26.23,7.13-7.13-.75-7.13-.75-19.12,3.74-31.12,6S155.3,297,159,284.19s24.75-19.12,33.37-19.12S217.12,269.2,217.12,269.2Z"/><path class="cls-4" d="M195.37,316.82s16.12-5.6,22.87-19.87"/><path class="cls-4" d="M210.74,308.56a42.94,42.94,0,0,0,13.88-9.36"/><path class="cls-9" d="M172.87,281.58s4.48,23.61,2.24,33.36-15.37,11.25-18.37,10.12-1.5-24.37-1.5-36S166.88,278.2,172.87,281.58Z"/><path class="cls-11" d="M77.27,218.58s-2.62,15.36-.75,22.88a32,32,0,0,0,5.24,11.62S72.39,267,74.27,278.57,81,291.69,81,291.69s-4.12,21.38,3.36,28.87,24,15.74,42.36,12.38,30.75-4.13,34.49-10.51,1.5-34.49,1.5-34.49-.75-31.11-1.5-50.24-3.35-34.49-12.37-42-48.74,4.13-60.74,12S77.27,218.58,77.27,218.58Z"/><g class="cls-16"><path class="cls-17" d="M79.94,218.58s-2.63,15.37-.75,22.88a31.78,31.78,0,0,0,5.25,11.62s-9.38,13.87-7.5,25.49,6.71,13.12,6.71,13.12S79.53,313.07,87,320.56s24,15.74,42.46,12.38,30.75-4.13,34.5-10.51,1.5-34.49,1.5-34.49-.75-31.11-1.5-50.24-3.36-34.49-12.37-42-48.75,4.13-60.74,12S79.94,218.58,79.94,218.58Z"/></g><path class="cls-8" d="M77.27,218.58s-2.62,15.36-.75,22.88a32,32,0,0,0,5.24,11.62S72.39,267,74.27,278.57,81,291.69,81,291.69s-4.12,21.38,3.36,28.87,24,15.74,42.36,12.38,30.75-4.13,34.49-10.51,1.5-34.49,1.5-34.49-.75-31.11-1.5-50.24-3.35-34.49-12.37-42-48.74,4.13-60.74,12S77.27,218.58,77.27,218.58Z"/><path class="cls-8" d="M81.76,253.08a45.58,45.58,0,0,0,40.12,5.59"/><path class="cls-8" d="M81,291.69s19.12,18.75,50.63.75"/><path class="cls-18" d="M155.62,200.21s-7.11-10.88-16.87-16.87-34.86-10.5-45-12.37-21-1.12-24,10.06-2.63,30,.37,38.24,15.37,13.13,25.13,7.51,36.74-27.38,46.11-28.5S154.87,204.34,155.62,200.21Z"/><g class="cls-19"><path class="cls-17" d="M134.83,198.14c5.71-2.38-8.59,1.9-9.54.47s10-8.57,12.39-9.52-13.82,2.38-13.34,0,15.72-2.87,5.24-5.25-44.75-8.58-51.46-11a5.61,5.61,0,0,1-1.45-.72,13.33,13.33,0,0,0-6.9,9c-3,11.25-2.63,30,.37,38.24,2.62,7.18,12.31,11.8,21.26,9.17,4.12-3.35,7.94-7.76,14.39-11.82C118.63,208.58,129.11,200.48,134.83,198.14Z"/></g><path class="cls-8" d="M155.62,200.21s-7.11-10.88-16.87-16.87-34.86-10.5-45-12.37-21-1.12-24,10.06-2.63,30,.37,38.24,15.37,13.13,25.13,7.51,36.74-27.38,46.11-28.5S154.87,204.34,155.62,200.21Z"/><path class="cls-7" d="M196.12,251.2s8.63,1.12,14.24,3.36,9.38,16.12,7.13,18-6.71-.37-6.71-.37a55,55,0,0,1-10.88,2.62C195.37,275.2,190.49,253.83,196.12,251.2Z"/><path class="cls-9" d="M167.63,250.07s1.5,0,9.74-3.75,15-3.74,20.25,4.48,7.5,18.38,4.48,24.38-14.25,10.12-20.25,10.12-6.72-7.83-6.72-7.83-.75-12.37-4.47-16.87S166.13,251.2,167.63,250.07Z"/><path class="cls-11" d="M139.88,200.21c8.25-3,18.75-1.12,22.5,9.37s7.12,41.24,7.12,41.24,9.37,1.12,13.12,5.26,5.59,14.62,4.88,19.87-13.88,15-28.87,15.37-25.87-6.71-31.12-25.88-3.17-48.28-3.17-48.28,1.9-8.58,4.77-10.5"/><g class="cls-20"><path class="cls-17" d="M187.5,276c.75-5.25-1.12-15.75-4.88-19.87-.15-.17-.33-.33-.48-.48a93.34,93.34,0,0,1,.8,10.16c.75,22-30,18.32-36.2,2.38-3.36-8.58-4.3-46.23-14.3-49.08-5.77-1.64-7.74,2.88-8.37,7-.2,10.8.16,27.43,3.44,39.38,5.25,19.13,16.12,26.25,31.12,25.88S186.75,281.19,187.5,276Z"/></g><path class="cls-8" d="M139.88,200.21c8.25-3,18.75-1.12,22.5,9.37s7.12,41.24,7.12,41.24,9.37,1.12,13.12,5.26,5.59,14.62,4.88,19.87-13.88,15-28.87,15.37-25.87-6.71-31.12-25.88-3.17-48.28-3.17-48.28,1.9-8.58,4.77-10.5"/><path class="cls-8" d="M169.5,250.82s2.93,13.66-12.13,21.16"/></g><g id="freepik--Text--inject-2"><path class="cls-5" d="M94.9,12.71c0-3.11,1.43-5.41,4.66-5.41s4.74,2.24,4.74,5.41V23.62c0,3.11-1.45,5.4-4.74,5.4s-4.66-2.24-4.66-5.4Zm1.4,11c0,2.32.91,4,3.26,4s3.36-1.7,3.36-4V12.62c0-2.32-.94-4-3.36-4s-3.26,1.71-3.26,4Z"/><path class="cls-5" d="M106.52,12.71c0-3.11,1.43-5.41,4.67-5.41s4.73,2.24,4.73,5.41V23.62c0,3.11-1.43,5.4-4.73,5.4s-4.67-2.24-4.67-5.4Zm1.4,11c0,2.32.92,4,3.27,4s3.35-1.7,3.35-4V12.62c0-2.32-.94-4-3.35-4s-3.27,1.71-3.27,4Z"/><path class="cls-5" d="M122.66,7.49c3.29,0,4.58,2.07,4.58,5.18V15c0,3.36-1.57,5.06-4.94,5.06h-2.66v8.79h-1.36V7.49Zm-.36,11.29c2.47,0,3.53-1.12,3.53-3.69V12.58c0-2.31-.79-3.81-3.17-3.81h-3V18.84Z"/><path class="cls-5" d="M138.34,12.65v.45H137v-.55c0-2.24-.85-4-3.17-4s-3.18,1.68-3.18,3.94c0,5.18,7.72,5.27,7.72,11.19,0,3.07-1.34,5.33-4.61,5.33s-4.6-2.23-4.6-5.33V22.6h1.35v1.18c0,2.24.88,3.94,3.23,3.94S137,26.07,137,23.78c0-5.12-7.72-5.21-7.72-11.18,0-3.2,1.4-5.28,4.55-5.32S138.34,9.56,138.34,12.65Z"/><path class="cls-5" d="M141.85,26.17v2.68h-1.36V26.17Z"/><path class="cls-5" d="M145.67,26.17v2.68H144.3V26.17Z"/><path class="cls-5" d="M149.48,26.17v2.68h-1.37V26.17Z"/><path class="cls-5" d="M99.41,38.56c3.35,0,4.57,2.07,4.57,5.19v2.32c0,3.36-1.55,5.07-4.93,5.07H96.39v8.78H95V38.56Zm-.36,11.29c2.46,0,3.53-1.12,3.53-3.69V43.65c0-2.31-.79-3.8-3.17-3.8h-3v10Z"/><path class="cls-5" d="M107.74,55.19l-1.12,4.73h-1.28L110,38.53h2l4.75,21.39h-1.4l-1.11-4.73ZM108,54h6.22L111,40.15Z"/><path class="cls-5" d="M128.09,43.75v1.59h-1.34V43.66c0-2.23-.89-4-3.23-4s-3.24,1.74-3.24,4V54.77c0,2.24.89,4,3.24,4s3.23-1.72,3.23-4V50.16h-2.88V48.89h4.18v5.79c0,3.08-1.35,5.4-4.61,5.4s-4.6-2.32-4.6-5.4V43.75c0-3.07,1.34-5.39,4.6-5.39S128.09,40.7,128.09,43.75Z"/><path class="cls-5" d="M137.68,48.45v1.28h-5.83v9h7V60h-8.42V38.56h8.42v1.29h-7v8.6Z"/><path class="cls-5" d="M147.17,59.92h-1.29V38.56h1.83l6.37,18v-18h1.27V59.92H153.8l-6.71-19Z"/><path class="cls-5" d="M157.73,43.75c0-3.11,1.43-5.39,4.66-5.39s4.73,2.24,4.73,5.39V54.68c0,3.11-1.44,5.4-4.73,5.4s-4.66-2.24-4.66-5.4Zm1.39,11c0,2.32.92,4,3.27,4s3.36-1.71,3.36-4V43.66c0-2.31-.94-4-3.36-4s-3.27,1.71-3.27,4Z"/><path class="cls-5" d="M173.1,59.92V39.85h-4.33V38.56h10.07v1.29h-4.37V59.92Z"/><path class="cls-5" d="M192.21,49v1.27h-5.53v9.68h-1.4V38.56h8.11v1.29h-6.71V49Z"/><path class="cls-5" d="M195.47,43.75c0-3.11,1.43-5.39,4.67-5.39s4.73,2.24,4.73,5.39V54.68c0,3.11-1.43,5.4-4.73,5.4s-4.67-2.24-4.67-5.4Zm1.4,11c0,2.32.92,4,3.27,4s3.35-1.71,3.35-4V43.66c0-2.31-.94-4-3.35-4s-3.27,1.71-3.27,4Z"/><path class="cls-5" d="M208.49,54.76c0,2.24.87,4.06,3.22,4.06s3.2-1.77,3.2-4.06V38.56h1.3V54.71c0,3-1.27,5.39-4.54,5.39s-4.57-2.35-4.57-5.39V38.56h1.39Z"/><path class="cls-5" d="M219.91,59.92h-1.28V38.56h1.82l6.41,18v-18h1.29V59.92h-1.57l-6.71-19Z"/><path class="cls-5" d="M235.25,38.56c3.31,0,4.74,2.17,4.74,5.32V54.6c0,3.15-1.43,5.32-4.74,5.32h-4.69V38.56Zm0,20.07c2.39,0,3.36-1.61,3.36-4V43.81c0-2.35-1-4-3.36-4H232V58.63Z"/><path class="cls-21" d="M306.23,257.58l15.22-35.95h9.12v35.95h3.95v7.59h-3.95v9.66h-8.21v-9.66H306.23Zm16.11,0v-20l-8.44,20Z"/><path class="cls-21" d="M337.64,234.4c0-8.5,4.48-13.43,12.69-13.43S363,225.84,363,234.4v27.65c0,8.52-4.48,13.43-12.69,13.43s-12.69-4.87-12.69-13.43ZM346,262.59c0,3.8,1.67,5.25,4.33,5.25s4.33-1.45,4.33-5.25V233.87c0-3.8-1.68-5.24-4.33-5.24s-4.33,1.44-4.33,5.24Z"/><path class="cls-21" d="M366.44,257.58l15.19-35.95h9.12v35.95h3.95v7.59h-3.95v9.66h-8.21v-9.66h-16.1Zm16.1,0v-20l-8.43,20Z"/></g></svg>