<svg width="92" height="15" viewBox="0 0 92 15" fill="none" xmlns="http://www.w3.org/2000/svg">
<path d="M7.055 12.08C9.055 12.08 10.655 10.68 10.655 7.54C10.655 4.4 9.375 2.74 7.055 2.74C4.715 2.74 3.415 4.4 3.415 7.54C3.415 10.68 4.755 12.08 7.055 12.08ZM7.055 14.46C2.975 14.46 0.675 11.96 0.675 7.48C0.675 2.98 2.975 0.279999 7.055 0.279999C11.135 0.279999 13.395 2.98 13.395 7.54C13.395 12.1 11.135 14.46 7.055 14.46ZM25.0534 14H22.4934L16.8134 5.08V14H14.2334V0.719999H17.1734L22.4534 9.26V0.719999H25.0534V14ZM35.4098 14H26.0498V0.719999H28.8298V11.58H35.4098V14ZM39.4166 14H36.6366V8.98L32.0366 0.719999H35.2766L38.0766 6.12L40.6566 0.719999H43.8566L39.4166 9.02V14ZM47.1478 11.74H50.6678C51.9478 11.74 52.7078 10.92 52.7078 9.84C52.7078 8.68 51.9478 8.16 50.7078 8.16H47.1478V11.74ZM50.4878 3.02H47.1478V5.9H50.6478C51.7478 5.9 52.3278 5.4 52.3278 4.46C52.3278 3.44 51.7878 3.02 50.4878 3.02ZM50.4478 14H44.4678V0.719999H51.0078C53.6078 0.719999 55.0078 2.12 55.0078 4.34C55.0078 5.48 54.3078 6.44 53.3878 6.82C54.5078 7.24 55.4078 8.14 55.4078 10.04C55.4078 12.46 53.7878 14 50.4478 14ZM66.0322 14H55.9522V0.719999H65.7122V3.04H58.6522V5.88H65.1522V8.22H58.6522V11.64H66.0322V14ZM76.6767 14H66.5967V0.719999H76.3567V3.04H69.2967V5.88H75.7967V8.22H69.2967V11.64H76.6767V14ZM87.4013 4.64H84.7613C84.6213 3.28 83.8013 2.62 82.1213 2.62C80.5613 2.62 79.7413 3.18 79.7413 4.18C79.7413 5.02 80.3213 5.5 81.8013 5.86C83.3013 6.22 84.7613 6.58 85.7413 7.02C86.9013 7.54 87.8213 8.36 87.8213 10.24C87.8213 13.16 85.6213 14.46 82.5213 14.46C79.2413 14.46 76.9613 13 76.9013 10.02H79.5813C79.6213 11.38 80.7613 12.22 82.5413 12.22C84.1813 12.22 85.1213 11.52 85.1213 10.34C85.1213 9.56 84.7213 9.02 83.0613 8.66C81.4213 8.3 80.3613 8.06 79.4212 7.64C78.0013 7 77.2013 6.04 77.2013 4.36C77.2013 1.98 78.8213 0.279999 82.0612 0.279999C85.4213 0.279999 87.3013 2.1 87.4013 4.64ZM91.1345 14H88.3545V11.3H91.1345V14Z" fill="black"/>
</svg>
