<svg width="118" height="19" viewBox="0 0 118 19" fill="none" xmlns="http://www.w3.org/2000/svg">
<path d="M7.32386 6.71023C7.27841 6.25189 7.08333 5.89583 6.73864 5.64205C6.39394 5.38826 5.92614 5.26136 5.33523 5.26136C4.93371 5.26136 4.5947 5.31818 4.31818 5.43182C4.04167 5.54167 3.82955 5.69508 3.68182 5.89205C3.53788 6.08902 3.46591 6.3125 3.46591 6.5625C3.45833 6.77083 3.50189 6.95265 3.59659 7.10795C3.69508 7.26326 3.82955 7.39773 4 7.51136C4.17045 7.62121 4.36742 7.7178 4.59091 7.80114C4.81439 7.88068 5.05303 7.94886 5.30682 8.00568L6.35227 8.25568C6.85985 8.36932 7.32576 8.52083 7.75 8.71023C8.17424 8.89962 8.54167 9.13258 8.85227 9.40909C9.16288 9.68561 9.40341 10.0114 9.57386 10.3864C9.74811 10.7614 9.83712 11.1913 9.84091 11.6761C9.83712 12.3883 9.6553 13.0057 9.29545 13.5284C8.93939 14.0473 8.42424 14.4508 7.75 14.7386C7.07955 15.0227 6.27083 15.1648 5.32386 15.1648C4.38447 15.1648 3.56629 15.0208 2.86932 14.733C2.17614 14.4451 1.63447 14.0189 1.24432 13.4545C0.857955 12.8864 0.655303 12.1837 0.636364 11.3466H3.01705C3.04356 11.7367 3.1553 12.0625 3.35227 12.3239C3.55303 12.5814 3.82008 12.7765 4.15341 12.9091C4.49053 13.0379 4.87121 13.1023 5.29545 13.1023C5.71212 13.1023 6.07386 13.0417 6.38068 12.9205C6.69129 12.7992 6.93182 12.6307 7.10227 12.4148C7.27273 12.1989 7.35795 11.9508 7.35795 11.6705C7.35795 11.4091 7.2803 11.1894 7.125 11.0114C6.97348 10.8333 6.75 10.6818 6.45455 10.5568C6.16288 10.4318 5.80492 10.3182 5.38068 10.2159L4.11364 9.89773C3.13258 9.65909 2.35795 9.28598 1.78977 8.77841C1.22159 8.27083 0.939394 7.58712 0.943182 6.72727C0.939394 6.02273 1.12689 5.4072 1.50568 4.88068C1.88826 4.35417 2.41288 3.94318 3.07955 3.64773C3.74621 3.35227 4.50379 3.20455 5.35227 3.20455C6.21591 3.20455 6.9697 3.35227 7.61364 3.64773C8.26136 3.94318 8.76515 4.35417 9.125 4.88068C9.48485 5.4072 9.67045 6.01705 9.68182 6.71023H7.32386ZM15.3935 15.1705C14.4995 15.1705 13.7306 14.9811 13.0866 14.6023C12.4465 14.2197 11.9541 13.6894 11.6094 13.0114C11.2685 12.3333 11.098 11.553 11.098 10.6705C11.098 9.77652 11.2704 8.99242 11.6151 8.31818C11.9635 7.64015 12.4579 7.11174 13.098 6.73295C13.7382 6.35038 14.4995 6.15909 15.3821 6.15909C16.1435 6.15909 16.8101 6.29735 17.3821 6.57386C17.9541 6.85038 18.4067 7.23864 18.7401 7.73864C19.0734 8.23864 19.2571 8.82576 19.2912 9.5H17.0071C16.9427 9.06439 16.7723 8.71401 16.4957 8.44886C16.223 8.17992 15.8651 8.04545 15.4219 8.04545C15.0469 8.04545 14.7192 8.14773 14.4389 8.35227C14.1624 8.55303 13.9465 8.84659 13.7912 9.23295C13.6359 9.61932 13.5582 10.0871 13.5582 10.6364C13.5582 11.1932 13.634 11.6667 13.7855 12.0568C13.9408 12.447 14.1586 12.7443 14.4389 12.9489C14.7192 13.1534 15.0469 13.2557 15.4219 13.2557C15.6984 13.2557 15.9465 13.1989 16.1662 13.0852C16.3897 12.9716 16.5734 12.8068 16.7173 12.5909C16.8651 12.3712 16.9616 12.108 17.0071 11.8011H19.2912C19.2533 12.4678 19.0715 13.0549 18.7457 13.5625C18.4238 14.0663 17.9787 14.4602 17.4105 14.7443C16.8423 15.0284 16.17 15.1705 15.3935 15.1705ZM20.8409 15V6.27273H23.1875V7.79545H23.2784C23.4375 7.25379 23.7045 6.8447 24.0795 6.56818C24.4545 6.28788 24.8864 6.14773 25.375 6.14773C25.4962 6.14773 25.6269 6.1553 25.767 6.17045C25.9072 6.18561 26.0303 6.20644 26.1364 6.23295V8.38068C26.0227 8.34659 25.8655 8.31629 25.6648 8.28977C25.464 8.26326 25.2803 8.25 25.1136 8.25C24.7576 8.25 24.4394 8.32765 24.1591 8.48295C23.8826 8.63447 23.6629 8.84659 23.5 9.11932C23.3409 9.39205 23.2614 9.70644 23.2614 10.0625V15H20.8409ZM30.9247 15.1705C30.0421 15.1705 29.2789 14.983 28.6349 14.608C27.9948 14.2292 27.5005 13.7027 27.152 13.0284C26.8035 12.3504 26.6293 11.5644 26.6293 10.6705C26.6293 9.76894 26.8035 8.98106 27.152 8.30682C27.5005 7.62879 27.9948 7.10227 28.6349 6.72727C29.2789 6.34848 30.0421 6.15909 30.9247 6.15909C31.8073 6.15909 32.5687 6.34848 33.2088 6.72727C33.8527 7.10227 34.349 7.62879 34.6974 8.30682C35.0459 8.98106 35.2202 9.76894 35.2202 10.6705C35.2202 11.5644 35.0459 12.3504 34.6974 13.0284C34.349 13.7027 33.8527 14.2292 33.2088 14.608C32.5687 14.983 31.8073 15.1705 30.9247 15.1705ZM30.9361 13.2955C31.3376 13.2955 31.6728 13.1818 31.9418 12.9545C32.2107 12.7235 32.4134 12.4091 32.5497 12.0114C32.6899 11.6136 32.7599 11.161 32.7599 10.6534C32.7599 10.1458 32.6899 9.69318 32.5497 9.29545C32.4134 8.89773 32.2107 8.58333 31.9418 8.35227C31.6728 8.12121 31.3376 8.00568 30.9361 8.00568C30.5308 8.00568 30.1899 8.12121 29.9134 8.35227C29.6406 8.58333 29.4342 8.89773 29.294 9.29545C29.1577 9.69318 29.0895 10.1458 29.0895 10.6534C29.0895 11.161 29.1577 11.6136 29.294 12.0114C29.4342 12.4091 29.6406 12.7235 29.9134 12.9545C30.1899 13.1818 30.5308 13.2955 30.9361 13.2955ZM39.2145 3.36364V15H36.794V3.36364H39.2145ZM43.5739 3.36364V15H41.1534V3.36364H43.5739ZM52.4318 15.142C51.7689 15.142 51.1686 14.9716 50.6307 14.6307C50.0966 14.286 49.6723 13.7803 49.358 13.1136C49.0473 12.4432 48.892 11.6212 48.892 10.6477C48.892 9.64773 49.053 8.81629 49.375 8.15341C49.697 7.48674 50.125 6.98864 50.6591 6.65909C51.197 6.32576 51.786 6.15909 52.4261 6.15909C52.9148 6.15909 53.322 6.24242 53.6477 6.40909C53.9773 6.57197 54.2424 6.77652 54.4432 7.02273C54.6477 7.26515 54.803 7.50379 54.9091 7.73864H54.983V3.36364H57.3977V15H55.0114V13.6023H54.9091C54.7955 13.8447 54.6345 14.0852 54.4261 14.3239C54.2216 14.5587 53.9545 14.7538 53.625 14.9091C53.2992 15.0644 52.9015 15.142 52.4318 15.142ZM53.1989 13.2159C53.589 13.2159 53.9186 13.1098 54.1875 12.8977C54.4602 12.6818 54.6686 12.3807 54.8125 11.9943C54.9602 11.608 55.0341 11.1553 55.0341 10.6364C55.0341 10.1174 54.9621 9.66667 54.8182 9.28409C54.6742 8.90151 54.4659 8.60606 54.1932 8.39773C53.9205 8.18939 53.589 8.08523 53.1989 8.08523C52.8011 8.08523 52.4659 8.19318 52.1932 8.40909C51.9205 8.625 51.714 8.92424 51.5739 9.30682C51.4337 9.68939 51.3636 10.1326 51.3636 10.6364C51.3636 11.1439 51.4337 11.5928 51.5739 11.983C51.7178 12.3693 51.9242 12.6723 52.1932 12.892C52.4659 13.108 52.8011 13.2159 53.1989 13.2159ZM63.331 15.1705C62.4484 15.1705 61.6851 14.983 61.0412 14.608C60.401 14.2292 59.9067 13.7027 59.5582 13.0284C59.2098 12.3504 59.0355 11.5644 59.0355 10.6705C59.0355 9.76894 59.2098 8.98106 59.5582 8.30682C59.9067 7.62879 60.401 7.10227 61.0412 6.72727C61.6851 6.34848 62.4484 6.15909 63.331 6.15909C64.2135 6.15909 64.9749 6.34848 65.6151 6.72727C66.259 7.10227 66.7552 7.62879 67.1037 8.30682C67.4522 8.98106 67.6264 9.76894 67.6264 10.6705C67.6264 11.5644 67.4522 12.3504 67.1037 13.0284C66.7552 13.7027 66.259 14.2292 65.6151 14.608C64.9749 14.983 64.2135 15.1705 63.331 15.1705ZM63.3423 13.2955C63.7438 13.2955 64.0791 13.1818 64.348 12.9545C64.617 12.7235 64.8196 12.4091 64.956 12.0114C65.0961 11.6136 65.1662 11.161 65.1662 10.6534C65.1662 10.1458 65.0961 9.69318 64.956 9.29545C64.8196 8.89773 64.617 8.58333 64.348 8.35227C64.0791 8.12121 63.7438 8.00568 63.3423 8.00568C62.937 8.00568 62.5961 8.12121 62.3196 8.35227C62.0469 8.58333 61.8404 8.89773 61.7003 9.29545C61.5639 9.69318 61.4957 10.1458 61.4957 10.6534C61.4957 11.161 61.5639 11.6136 61.7003 12.0114C61.8404 12.4091 62.0469 12.7235 62.3196 12.9545C62.5961 13.1818 62.937 13.2955 63.3423 13.2955ZM70.7031 15L68.3281 6.27273H70.777L72.1293 12.1364H72.2088L73.6179 6.27273H76.0213L77.4531 12.1023H77.527L78.8565 6.27273H81.2997L78.9304 15H76.3679L74.8679 9.51136H74.7599L73.2599 15H70.7031ZM85.0114 9.95455V15H82.5909V6.27273H84.8977V7.8125H85C85.1932 7.30492 85.517 6.90341 85.9716 6.60795C86.4261 6.30871 86.9773 6.15909 87.625 6.15909C88.2311 6.15909 88.7595 6.29167 89.2102 6.55682C89.661 6.82197 90.0114 7.20076 90.2614 7.69318C90.5114 8.18182 90.6364 8.76515 90.6364 9.44318V15H88.2159V9.875C88.2197 9.34091 88.0833 8.92424 87.8068 8.625C87.5303 8.32197 87.1496 8.17045 86.6648 8.17045C86.339 8.17045 86.0511 8.24053 85.8011 8.38068C85.5549 8.52083 85.3617 8.72538 85.2216 8.99432C85.0852 9.25947 85.0152 9.57955 85.0114 9.95455Z" fill="#7A7A7A"/>
<path d="M117 4L107 14L97 4" stroke="#7A7A7A"/>
</svg>
