<svg width="962" height="222" viewBox="0 0 962 222" fill="none" xmlns="http://www.w3.org/2000/svg">
<path d="M123.256 97H108.248L96.712 48.616L84.952 97H70.392L49.336 22.632H65.912L78.12 70.792L88.424 22.632H104.776L116.088 70.792L128.184 22.632H144.088L123.256 97ZM203.946 97H147.498V22.632H202.154V35.624H162.618V51.528H199.018V64.632H162.618V83.784H203.946V97ZM276.571 68.888L267.275 39.32H267.163L257.643 68.888H276.571ZM302.667 97H285.755L281.051 81.656H253.611L248.347 97H231.883L258.427 22.632H276.459L302.667 97ZM341.26 35.512H321.212V55.336H340.7C348.988 55.336 352.124 51.192 352.124 45.48C352.124 39.656 348.988 35.512 341.26 35.512ZM364.668 97H349.436V77.848C349.436 70.68 346.748 67.88 337.788 67.88H321.212V97H306.092V22.632H343.836C357.612 22.632 366.684 31.816 366.684 44.136C366.684 52.088 362.764 58.808 355.596 61.384C362.204 63.512 364.668 67.208 364.668 75.944V97ZM427.29 97H370.842V22.632H425.498V35.624H385.962V51.528H422.362V64.632H385.962V83.784H427.29V97ZM507.419 71.464H522.987C519.851 88.376 508.203 99.576 490.955 99.576C471.467 99.576 456.571 86.248 456.571 60.712C456.571 35.512 469.899 20.168 491.179 20.168C509.771 20.168 521.531 32.04 522.987 47.048H507.419C505.291 38.648 498.683 33.608 491.291 33.608C478.411 33.608 472.363 43.576 472.363 59.816C472.363 76.28 478.411 86.024 490.507 86.024C499.691 86.024 505.291 80.76 507.419 71.464ZM561.322 35.512H541.274V55.336H560.762C569.05 55.336 572.186 51.192 572.186 45.48C572.186 39.656 569.05 35.512 561.322 35.512ZM584.73 97H569.498V77.848C569.498 70.68 566.81 67.88 557.85 67.88H541.274V97H526.154V22.632H563.898C577.674 22.632 586.746 31.816 586.746 44.136C586.746 52.088 582.826 58.808 575.658 61.384C582.266 63.512 584.73 67.208 584.73 75.944V97ZM647.352 97H590.904V22.632H645.56V35.624H606.024V51.528H642.424V64.632H606.024V83.784H647.352V97ZM692.962 68.888L683.666 39.32H683.554L674.034 68.888H692.962ZM719.058 97H702.146L697.442 81.656H670.002L664.738 97H648.274L674.818 22.632H692.85L719.058 97ZM739.4 97H723.832V35.624H701.432V22.632H761.912V35.624H739.4V97ZM781.144 97H765.576V22.632H781.144V97ZM824.099 97H809.427L784.227 22.632H800.803L817.043 74.824L833.171 22.632H849.299L824.099 97ZM909.305 97H852.857V22.632H907.513V35.624H867.977V51.528H904.377V64.632H867.977V83.784H909.305V97ZM67.144 168.352H81.928C90.888 168.352 94.584 163.76 94.584 157.264C94.584 151.104 90.888 146.512 81.928 146.512H67.144V168.352ZM67.144 208H51.576V133.632H84.392C98.952 133.632 108.248 144.272 108.248 157.712C108.248 171.264 98.952 181.008 84.392 181.008H67.144V208ZM146.572 146.512H126.524V166.336H146.012C154.3 166.336 157.436 162.192 157.436 156.48C157.436 150.656 154.3 146.512 146.572 146.512ZM169.98 208H154.748V188.848C154.748 181.68 152.06 178.88 143.1 178.88H126.524V208H111.404V133.632H149.148C162.924 133.632 171.996 142.816 171.996 155.136C171.996 163.088 168.076 169.808 160.908 172.384C167.516 174.512 169.98 178.208 169.98 186.944V208ZM210.986 197.248C222.186 197.248 231.146 189.408 231.146 171.824C231.146 154.24 223.978 144.944 210.986 144.944C197.882 144.944 190.602 154.24 190.602 171.824C190.602 189.408 198.106 197.248 210.986 197.248ZM210.986 210.576C188.138 210.576 175.258 196.576 175.258 171.488C175.258 146.288 188.138 131.168 210.986 131.168C233.834 131.168 246.49 146.288 246.49 171.824C246.49 197.36 233.834 210.576 210.986 210.576ZM266.193 195.344H285.905C293.073 195.344 297.329 190.752 297.329 184.704C297.329 178.208 293.073 175.296 286.129 175.296H266.193V195.344ZM284.897 146.512H266.193V162.64H285.793C291.953 162.64 295.201 159.84 295.201 154.576C295.201 148.864 292.177 146.512 284.897 146.512ZM284.673 208H251.185V133.632H287.809C302.369 133.632 310.209 141.472 310.209 153.904C310.209 160.288 306.289 165.664 301.137 167.792C307.409 170.144 312.449 175.184 312.449 185.824C312.449 199.376 303.377 208 284.673 208ZM367.914 208H315.498V133.632H331.066V194.448H367.914V208ZM428.055 208H371.607V133.632H426.263V146.624H386.727V162.528H423.127V175.632H386.727V194.784H428.055V208ZM503.345 208H488.785V157.04L474.897 208H459.441L445.665 157.264V208H431.217V133.632H454.065L467.505 188.176L480.945 133.632H503.345V208ZM593.003 155.584H578.219C577.435 147.968 572.843 144.272 563.435 144.272C554.699 144.272 550.107 147.408 550.107 153.008C550.107 157.712 553.355 160.4 561.643 162.416C570.043 164.432 578.219 166.448 583.707 168.912C590.203 171.824 595.355 176.416 595.355 186.944C595.355 203.296 583.035 210.576 565.675 210.576C547.307 210.576 534.539 202.4 534.203 185.712H549.211C549.435 193.328 555.819 198.032 565.787 198.032C574.971 198.032 580.235 194.112 580.235 187.504C580.235 183.136 577.995 180.112 568.699 178.096C559.515 176.08 553.579 174.736 548.315 172.384C540.363 168.8 535.883 163.424 535.883 154.016C535.883 140.688 544.955 131.168 563.099 131.168C581.915 131.168 592.443 141.36 593.003 155.584ZM633.174 197.248C644.374 197.248 653.334 189.408 653.334 171.824C653.334 154.24 646.166 144.944 633.174 144.944C620.07 144.944 612.79 154.24 612.79 171.824C612.79 189.408 620.294 197.248 633.174 197.248ZM633.174 210.576C610.326 210.576 597.446 196.576 597.446 171.488C597.446 146.288 610.326 131.168 633.174 131.168C656.022 131.168 668.678 146.288 668.678 171.824C668.678 197.36 656.022 210.576 633.174 210.576ZM725.789 208H673.373V133.632H688.941V194.448H725.789V208ZM748.958 208H734.286L709.086 133.632H725.662L741.902 185.824L758.03 133.632H774.158L748.958 208ZM834.165 208H777.717V133.632H832.373V146.624H792.837V162.528H829.237V175.632H792.837V194.784H834.165V208ZM872.494 146.512H852.446V166.336H871.934C880.222 166.336 883.358 162.192 883.358 156.48C883.358 150.656 880.222 146.512 872.494 146.512ZM895.902 208H880.67V188.848C880.67 181.68 877.982 178.88 869.022 178.88H852.446V208H837.326V133.632H875.07C888.846 133.632 897.918 142.816 897.918 155.136C897.918 163.088 893.998 169.808 886.83 172.384C893.438 174.512 895.902 178.208 895.902 186.944V208ZM958.206 155.584H943.422C942.638 147.968 938.046 144.272 928.638 144.272C919.902 144.272 915.31 147.408 915.31 153.008C915.31 157.712 918.558 160.4 926.846 162.416C935.246 164.432 943.422 166.448 948.91 168.912C955.406 171.824 960.558 176.416 960.558 186.944C960.558 203.296 948.238 210.576 930.878 210.576C912.51 210.576 899.742 202.4 899.406 185.712H914.414C914.638 193.328 921.022 198.032 930.99 198.032C940.174 198.032 945.438 194.112 945.438 187.504C945.438 183.136 943.198 180.112 933.902 178.096C924.718 176.08 918.782 174.736 913.518 172.384C905.566 168.8 901.086 163.424 901.086 154.016C901.086 140.688 910.158 131.168 928.302 131.168C947.118 131.168 957.646 141.36 958.206 155.584Z" fill="black"/>
<path d="M11.1044 174.316C12.5903 174.316 13.8631 174.595 14.9226 175.152C15.9776 175.704 16.7856 176.458 17.3468 177.414C17.908 178.366 18.1886 179.446 18.1886 180.653C18.1886 181.861 17.908 182.943 17.3468 183.899C16.7811 184.851 15.9708 185.605 14.9158 186.162C13.8563 186.714 12.5859 186.99 11.1044 186.99C9.61841 186.99 8.34793 186.714 7.29293 186.162C6.23345 185.605 5.42312 184.851 4.86195 183.899C4.30079 182.943 4.0202 181.861 4.0202 180.653C4.0202 179.446 4.30079 178.366 4.86195 177.414C5.42312 176.458 6.23345 175.704 7.29293 175.152C8.34792 174.595 9.61841 174.317 11.1044 174.316ZM11.1044 176.828C10.0584 176.828 9.17621 176.992 8.45791 177.32C7.73513 177.643 7.18968 178.092 6.82155 178.667C6.44894 179.241 6.26263 179.903 6.26263 180.653C6.26263 181.403 6.44894 182.065 6.82155 182.64C7.18968 183.214 7.73513 183.666 8.45791 183.993C9.17621 184.316 10.0584 184.478 11.1044 184.478C12.1504 184.478 13.0348 184.316 13.7576 183.993C14.4759 183.666 15.0213 183.214 15.3939 182.64C15.7621 182.065 15.9461 181.403 15.9461 180.653C15.9461 179.903 15.7621 179.241 15.3939 178.667C15.0213 178.092 14.4759 177.643 13.7576 177.32C13.0348 176.992 12.1504 176.828 11.1044 176.828ZM4.20876 160.621L18 160.621L18 162.843L8.60606 169.342L8.60606 169.456L18 169.456L18 171.955L4.20876 171.955L4.20876 169.719L13.6094 163.227L13.6094 163.106L4.20876 163.106L4.20876 160.621ZM18 157.899L4.20876 157.899L4.20876 155.401L15.9057 155.401L15.9057 149.327L18 149.327L18 157.899ZM4.20875 149.49L4.20875 146.668L10.3098 143.295L10.3098 143.16L4.20875 139.786L4.20875 136.965L12.8552 141.981L18 141.981L18 144.473L12.8552 144.473L4.20875 149.49ZM6.30303 131.098L4.20875 131.098L4.20875 120.094L6.30303 120.094L6.30303 124.357L18 124.357L18 126.835L6.30303 126.835L6.30303 131.098ZM18 117.973L4.20875 117.973L4.20875 115.475L10.0471 115.475L10.0471 109.084L4.20875 109.084L4.20875 106.579L18 106.579L18 109.084L12.1414 109.084L12.1414 115.475L18 115.475L18 117.973ZM18 103.862L4.20875 103.862L4.20875 94.8923L6.30303 94.8923L6.30303 101.364L10.0471 101.364L10.0471 95.3569L12.1414 95.3569L12.1414 101.364L15.9057 101.364L15.9057 94.8384L18 94.8384L18 103.862ZM18 87.6397L4.20875 87.6397L4.20875 82.3603C4.20875 81.3637 4.36588 80.5354 4.68013 79.8754C4.9899 79.211 5.41414 78.7149 5.95286 78.3872C6.49158 78.055 7.10213 77.8889 7.78451 77.8889C8.34568 77.8889 8.82603 77.9966 9.22559 78.2121C9.62065 78.4276 9.94163 78.7172 10.1885 79.0808C10.4355 79.4445 10.6128 79.8507 10.7205 80.2997L10.8552 80.2997C10.8822 79.8103 11.0325 79.3412 11.3064 78.8923C11.5758 78.4388 11.9573 78.0685 12.4512 77.7812C12.945 77.4938 13.5421 77.3502 14.2424 77.3502C14.9562 77.3502 15.5982 77.523 16.1683 77.8687C16.734 78.2144 17.1807 78.7351 17.5084 79.431C17.8361 80.1268 18 81.0023 18 82.0573L18 87.6397ZM15.9125 85.1414L15.9125 82.4546C15.9125 81.5477 15.7396 80.8945 15.3939 80.495C15.0438 80.0909 14.5948 79.8889 14.0471 79.8889C13.6386 79.8889 13.2705 79.9899 12.9428 80.1919C12.6105 80.394 12.3502 80.6813 12.1616 81.0539C11.9686 81.4265 11.8721 81.8709 11.8721 82.3872L11.8721 85.1414L15.9125 85.1414ZM10.0741 85.1414L10.0741 82.67C10.0741 82.2391 9.99551 81.8507 9.83838 81.5051C9.67676 81.1594 9.45005 80.8878 9.15825 80.6903C8.86195 80.4882 8.51178 80.3872 8.10774 80.3872C7.57351 80.3872 7.13355 80.5758 6.78788 80.9529C6.4422 81.3255 6.26936 81.8799 6.26936 82.6162L6.26936 85.1414L10.0741 85.1414ZM18 75.1768L4.20875 75.1768L4.20875 66.2071L6.30303 66.2071L6.30303 72.6785L10.0471 72.6785L10.0471 66.6717L12.1414 66.6717L12.1414 72.6785L15.9057 72.6785L15.9057 66.1532L18 66.1532L18 75.1768ZM8 56.1633C7.41189 56.2262 6.95398 56.491 6.62626 56.9579C6.29854 57.4203 6.13468 58.0219 6.13468 58.7626C6.13468 59.2834 6.21324 59.7301 6.37037 60.1027C6.52749 60.4753 6.74074 60.7604 7.0101 60.9579C7.27946 61.1555 7.58698 61.2565 7.93266 61.261C8.21997 61.261 8.46913 61.1959 8.68013 61.0657C8.89113 60.931 9.0707 60.7492 9.21885 60.5202C9.36251 60.2913 9.48372 60.0376 9.58249 59.7593C9.68125 59.4809 9.76431 59.2004 9.83165 58.9175L10.1549 57.6246C10.2761 57.1038 10.44 56.6033 10.6465 56.1229C10.853 55.6381 11.1134 55.2048 11.4276 54.8233C11.7419 54.4372 12.1212 54.1319 12.5657 53.9074C13.0101 53.683 13.5309 53.5707 14.1279 53.5707C14.936 53.5707 15.6476 53.7772 16.2626 54.1903C16.8732 54.6033 17.3513 55.2004 17.697 55.9815C18.0382 56.7582 18.2087 57.6987 18.2087 58.8031C18.2087 59.876 18.0426 60.8075 17.7104 61.5977C17.3782 62.3833 16.8934 62.9983 16.2559 63.4428C15.6184 63.8827 14.8417 64.1207 13.9259 64.1566L13.9259 61.6987C14.4063 61.6628 14.8058 61.5146 15.1246 61.2542C15.4433 60.9938 15.6813 60.6549 15.8384 60.2374C15.9955 59.8154 16.0741 59.344 16.0741 58.8233C16.0741 58.28 15.9933 57.8042 15.8316 57.3956C15.6655 56.9826 15.4366 56.6594 15.1448 56.4259C14.8485 56.1925 14.5028 56.0735 14.1077 56.069C13.7486 56.0735 13.4523 56.179 13.2189 56.3855C12.9809 56.5921 12.7834 56.8816 12.6263 57.2542C12.4646 57.6224 12.321 58.0533 12.1953 58.5472L11.7912 60.1162C11.4994 61.252 11.0572 62.1499 10.4646 62.8098C9.86756 63.4652 9.07519 63.7929 8.08754 63.7929C7.27497 63.793 6.56341 63.573 5.95286 63.133C5.34231 62.6886 4.86868 62.0848 4.53198 61.3216C4.19079 60.5584 4.0202 59.6942 4.0202 58.729C4.0202 57.7503 4.19079 56.8928 4.53198 56.1566C4.86868 55.4158 5.33782 54.8345 5.93939 54.4125C6.53647 53.9905 7.22334 53.7727 8 53.7593L8 56.1633ZM6.30303 51.9495L4.20875 51.9495L4.20875 40.9462L6.30303 40.9462L6.30303 45.2088L18 45.2088L18 47.6869L6.30303 47.6869L6.30303 51.9495ZM18.1481 38.0791C18.1481 38.4877 18.0045 38.8378 17.7172 39.1297C17.4298 39.4215 17.0797 39.5651 16.6667 39.5606C16.2626 39.5651 15.9169 39.4215 15.6296 39.1297C15.3423 38.8378 15.1986 38.4877 15.1986 38.0791C15.1986 37.6841 15.3423 37.3407 15.6296 37.0488C15.9169 36.7526 16.2626 36.6022 16.6667 36.5977C16.9405 36.6022 17.1897 36.674 17.4141 36.8132C17.6386 36.9478 17.8182 37.1274 17.9529 37.3519C18.083 37.5719 18.1481 37.8143 18.1481 38.0791Z" fill="black"/>
</svg>
