<svg width="30" height="30" viewBox="0 0 30 30" fill="none" xmlns="http://www.w3.org/2000/svg">
<path fill-rule="evenodd" clip-rule="evenodd" d="M3.18097 6.09682C2.5 6.92658 2.5 8.15939 2.5 10.625V11.5625C2.5 12.0803 2.91973 12.5 3.4375 12.5H3.75C5.13071 12.5 6.25 13.6193 6.25 15C6.25 16.3807 5.13071 17.5 3.75 17.5H3.4375C2.91973 17.5 2.5 17.9197 2.5 18.4375V19.375C2.5 21.8406 2.5 23.0734 3.18097 23.9032C3.30563 24.0551 3.44492 24.1944 3.59682 24.319C4.42658 25 5.65939 25 8.125 25H21.875C24.3406 25 25.5734 25 26.4032 24.319C26.5551 24.1944 26.6944 24.0551 26.819 23.9032C27.5 23.0734 27.5 21.8406 27.5 19.375V18.4375C27.5 17.9197 27.0803 17.5 26.5625 17.5H26.25C24.8693 17.5 23.75 16.3807 23.75 15C23.75 13.6193 24.8693 12.5 26.25 12.5H26.5625C27.0803 12.5 27.5 12.0803 27.5 11.5625V10.625C27.5 8.15939 27.5 6.92658 26.819 6.09682C26.6944 5.94492 26.5551 5.80563 26.4032 5.68097C25.5734 5 24.3406 5 21.875 5H8.125C5.65939 5 4.42658 5 3.59682 5.68097C3.44492 5.80563 3.30563 5.94492 3.18097 6.09682ZM14.446 13.3607L14.446 13.3607L14.4459 13.3607C14.3264 13.6699 14.2667 13.8245 14.1549 13.9296C14.1235 13.9591 14.0895 13.9854 14.0532 14.0081C13.924 14.0889 13.7626 14.1039 13.44 14.1339C12.8938 14.1847 12.6207 14.21 12.5373 14.3716C12.52 14.4051 12.5082 14.4413 12.5025 14.4788C12.4749 14.6599 12.6756 14.8495 13.0772 15.2286L13.1887 15.3339C13.3764 15.5111 13.4703 15.5997 13.5246 15.7103C13.5572 15.7767 13.579 15.8481 13.5892 15.9218C13.6063 16.0447 13.5788 16.1733 13.5238 16.4304L13.5042 16.5223C13.4056 16.9834 13.3563 17.2139 13.4178 17.3273C13.4731 17.4291 13.5749 17.4942 13.6874 17.4998C13.8126 17.506 13.989 17.3568 14.3418 17.0585C14.5743 16.8619 14.6905 16.7636 14.8196 16.7252C14.9375 16.6901 15.0625 16.6901 15.1804 16.7252C15.3095 16.7636 15.4257 16.8619 15.6582 17.0585C16.011 17.3568 16.1874 17.506 16.3126 17.4998C16.4251 17.4942 16.5269 17.4291 16.5822 17.3273C16.6437 17.2139 16.5944 16.9834 16.4958 16.5223L16.4762 16.4304C16.4212 16.1733 16.3937 16.0447 16.4108 15.9218C16.421 15.8481 16.4428 15.7767 16.4754 15.7103C16.5297 15.5997 16.6236 15.5111 16.8113 15.3339L16.9228 15.2286C17.3244 14.8495 17.5251 14.6599 17.4975 14.4788C17.4918 14.4413 17.48 14.4051 17.4627 14.3716C17.3793 14.21 17.1062 14.1847 16.56 14.1339C16.2374 14.1039 16.076 14.0889 15.9468 14.0081C15.9105 13.9854 15.8765 13.9591 15.8451 13.9296C15.7333 13.8245 15.6736 13.6699 15.554 13.3607C15.3439 12.817 15.2388 12.5451 15.0681 12.5074C15.0232 12.4975 14.9768 12.4975 14.9319 12.5074C14.7612 12.5451 14.6561 12.817 14.446 13.3607Z" fill="white"/>
</svg>
